<svg xmlns="http://www.w3.org/2000/svg" id="a" viewBox="0 0 1977.93 1160.46"><defs><style>.b{fill:#4d4d4d;}</style></defs><path class="b" d="M507.12,1002.99c87.71-.98,169.9-24.43,241.18-64.8,230.28-124.27,335.55-94.55,482.71,75.38v-.03c79.06,91.2,196.17,148.35,326.31,146.9,234.91-2.63,423.21-195.19,420.58-430.1-2.63-234.91-195.19-423.21-430.1-420.58-62.74,.7-122.15,14.96-175.49,39.95-201.43,88.38-308.74,68.4-463.72-141.16C816.4,80.67,665.51-1.87,495.9,.03,218.94,3.13-3.07,230.16,.03,507.12c3.1,276.96,230.13,498.96,507.09,495.86Z"></path></svg>