<svg xmlns="http://www.w3.org/2000/svg" id="a" viewBox="0 0 74.1 68.33"><path d="M18.87,68.33c-6.39-5.23-12.61-10.32-18.87-15.44,1.62-1.65,7.52-7.69,9.85-9.74,6.04-5.32,8.63-5.57,10.89-5.57s21.54-.01,25.49,0c3.03,0,5.18,1.97,5.31,4.67,.15,2.97-1.94,5.26-4.92,5.3-3.11,.05-6.22,.02-9.33,.02-1.9,0-2.48,1.1-2.63,1.75-.21,.94,.54,1.59,1.51,1.59,4.29,.02,8.6,.15,12.87-.16,1.32-.1,2.8-1.24,3.77-2.3,4.11-4.47,8.03-9.1,12.06-13.64,2.55-2.87,6.69-2.54,8.52,.64,1.15,2,.87,4.28-.84,6.29-3.72,4.35-7.46,8.69-11.19,13.03-1.22,1.42-2.48,2.81-3.66,4.27-2.81,3.47-6.44,5.03-10.87,5-7.35-.05-14.71,.02-22.06-.04-1.24,0-2.16,.3-2.96,1.25-.89,1.05-1.9,2-2.94,3.09ZM40.56,2.77c-1.52-1.54-3.34-2.49-5.51-2.7-3.3-.33-6.05,.79-8.12,3.37-2.92,3.65-2.57,8.78,.73,12.09,4.81,4.82,9.63,9.63,14.44,14.44,.07,.07,.14,.13,.21,.2,.05-.04,.08-.07,.1-.09,4.88-4.88,9.78-9.74,14.63-14.64,2.17-2.2,2.98-4.89,2.47-7.93C58.87,3.46,55.45,.33,51.39,.03c-2.72-.2-5.1,.64-7.08,2.53-.67,.64-1.3,1.31-1.98,2-.62-.62-1.2-1.2-1.78-1.79Z"></path></svg>