<svg xmlns="http://www.w3.org/2000/svg" id="a" viewBox="0 0 76.07 73.82"><path d="M55.23,32.64c3.32,8.26-.69,17.65-8.96,20.97-8.26,3.32-17.65-.69-20.97-8.96-2.34-5.82-1.03-12.2,2.83-16.62,3.41-3.9,2.75-9.9-1.44-12.96-.65-.48-1.19-1.14-1.52-1.95-.92-2.3,.19-4.92,2.5-5.85,2.3-.92,4.92,.19,5.85,2.5,.33,.81,.39,1.66,.25,2.46-.9,5.11,2.76,9.9,7.93,10.36,5.85,.53,11.2,4.23,13.53,10.05Z"></path><path d="M18.9,49.49c-3.95-2.81-4.65-8.4-1.5-12.1,1.46-1.72,2.35-3.95,2.35-6.4,0-5.45-4.42-9.88-9.88-9.88S0,25.54,0,31c0,4.18,2.6,7.74,6.26,9.19,4.5,1.78,6.52,7.04,4.35,11.38-.37,.76-.59,1.61-.59,2.51,0,3.11,2.52,5.63,5.63,5.63s5.63-2.52,5.63-5.63c0-1.89-.94-3.57-2.37-4.59Z"></path><path d="M69.06,38.57c-3.87,0-7.01,3.14-7.01,7.01,0,.33,.03,.65,.07,.96,.75,5.48-2.82,10.64-8.23,11.88-1.59,.36-2.78,1.78-2.78,3.48,0,1.97,1.6,3.57,3.57,3.57,1.85,0,3.38-1.41,3.55-3.22,.54-5.52,5.2-9.71,10.75-9.65,.02,0,.04,0,.07,0,3.87,0,7.01-3.14,7.01-7.01s-3.14-7.01-7.01-7.01Z"></path><circle cx="51.32" cy="8.58" r="8.58"></circle><circle cx="68.3" cy="25.28" r="3.91"></circle><circle cx="32.44" cy="66.1" r="7.73"></circle></svg>