<svg xmlns="http://www.w3.org/2000/svg" id="a" viewBox="0 0 88.64 53"><path d="M7.2,11.34l1.5,2.91c.09,.17,.28,.27,.47,.25l3.25-.38c.44-.05,.7,.48,.39,.8l-2.31,2.33c-.14,.14-.17,.35-.09,.53l1.37,2.98c.19,.4-.24,.81-.64,.62l-2.92-1.47c-.17-.09-.39-.06-.53,.07l-2.41,2.22c-.33,.3-.85,.02-.78-.42l.5-3.24c.03-.19-.06-.38-.23-.48l-2.85-1.6c-.39-.22-.28-.8,.15-.87l3.23-.53c.19-.03,.35-.18,.38-.37l.64-3.21c.09-.44,.67-.52,.88-.12ZM43.84,.21l-1.21,2.56c-.07,.14-.21,.23-.37,.21l-2.83-.23c-.35-.03-.55,.4-.29,.65l2.06,1.94c.11,.11,.15,.27,.09,.42l-1.09,2.62c-.14,.33,.21,.64,.53,.47l2.49-1.36c.14-.08,.31-.06,.42,.04l2.15,1.85c.27,.23,.68,0,.61-.35l-.53-2.79c-.03-.15,.04-.31,.17-.39l2.42-1.47c.3-.18,.2-.65-.15-.69l-2.81-.36c-.15-.02-.28-.13-.32-.29l-.65-2.76c-.08-.35-.55-.39-.7-.07Zm36.19,13.15l-1.51,1.57c-.1,.11-.26,.14-.4,.08l-2-.86c-.31-.14-.62,.2-.46,.5l1.03,1.92c.07,.13,.05,.29-.05,.41l-1.44,1.64c-.23,.26,0,.65,.33,.59l2.15-.38c.15-.03,.3,.04,.37,.17l1.11,1.87c.17,.29,.62,.2,.67-.13l.3-2.16c.02-.15,.13-.27,.28-.3l2.13-.48c.33-.07,.39-.53,.08-.68l-1.96-.95c-.14-.07-.22-.21-.2-.36l.2-2.17c.03-.34-.38-.53-.62-.28ZM8.48,33.39C3.01,34.06-.91,39.54,.18,44.95c.96,4.79,4.95,8.04,9.88,8.05,13.55,0,27.1,0,40.64-.01,1.01,0,2.05-.09,3.03-.31,6.95-1.55,11.35-7.81,10.52-14.9-.65-5.56-4.99-10.25-10.51-11.33-.33-.06-.49-.2-.59-.54-1.94-6.56-7.88-11.4-14.68-11.76-7.09-.37-12.42,2.65-15.96,8.8-.31,.54-.37,.62-.37,.62-5.93-.35-9.85,3.34-10.95,7.76-.16,.65-.24,1.32-.37,2.04-.8,0-1.59-.08-2.35,.01Zm79.33,7.37c-11.36,0-20.57-9.21-20.57-20.57,0-7.03,3.52-13.23,8.9-16.94,.48-.33,.3-1.09-.29-1.17-1.05-.15-2.13-.23-3.23-.23-9.66,0-17.92,6.03-21.21,14.53,2.02,2,3.59,4.39,4.61,7.03,6.24,1.89,10.97,7.43,11.74,13.97,.38,3.25-.12,6.36-1.33,9.09,2.05,.59,4.22,.89,6.45,.87,6.14-.07,11.7-2.57,15.76-6.59-.28,.01-.55,.02-.83,.02Z"></path></svg>