<?xml version="1.0" encoding="utf-8"?>
<!-- Generator: Adobe Illustrator 26.3.1, SVG Export Plug-In . SVG Version: 6.00 Build 0)  -->
<svg version="1.1" id="a" xmlns="http://www.w3.org/2000/svg" xmlns:xlink="http://www.w3.org/1999/xlink" x="0px" y="0px"
	 viewBox="0 0 149.6 74.7" style="enable-background:new 0 0 149.6 74.7;" xml:space="preserve">
<style type="text/css">
	.st0{fill:#FFFFFF;}
	.st1{fill:#FFC60B;}
</style>
<g>
	<g>
		<path class="st0" d="M17.2,17.1h-0.1L12,34H7.8L0,9.8h5.2l4.7,17h0.1l5.5-17h3.5l5.5,17h0.1l4.6-17h5.2L26.6,34h-4.3L17.2,17.1
			L17.2,17.1z"/>
		<path class="st0" d="M35.8,21.9c0-2.6,0.2-4.5,0.6-5.9c0.4-1.3,1.1-2.5,2-3.4c0.7-0.8,1.6-1.5,2.8-2.2c1.2-0.6,2.7-0.9,4.5-0.9
			c1.9,0,3.5,0.4,4.6,0.9c1.2,0.6,2.1,1.4,2.7,2.2c1,0.9,1.7,2,2,3.4c0.4,1.4,0.6,3.3,0.6,5.9s-0.2,4.5-0.6,5.8
			c-0.4,1.3-1.1,2.5-2,3.5c-0.3,0.4-0.7,0.7-1.2,1c-0.4,0.4-0.9,0.7-1.5,1c-1.2,0.7-2.7,1-4.6,1c-1.9,0-3.4-0.4-4.5-1
			c-1.2-0.6-2.1-1.3-2.8-2.1c-0.9-1-1.6-2.1-2-3.5C36,26.4,35.8,24.4,35.8,21.9z M50.9,21.9c0-1.7-0.1-3-0.2-3.8
			c-0.2-0.8-0.5-1.4-1-2c-0.4-0.5-0.9-1-1.6-1.3c-0.7-0.3-1.4-0.5-2.3-0.5c-0.8,0-1.6,0.2-2.3,0.5c-0.7,0.3-1.2,0.7-1.6,1.3
			c-0.4,0.6-0.7,1.3-0.9,2c-0.2,0.8-0.3,2-0.3,3.7s0.1,2.9,0.3,3.7c0.2,0.8,0.5,1.5,0.9,2.1c0.4,0.5,1,0.9,1.6,1.2
			c0.7,0.3,1.5,0.5,2.3,0.5c0.9,0,1.7-0.2,2.3-0.5c0.7-0.4,1.2-0.8,1.6-1.2c0.5-0.6,0.8-1.3,1-2.1C50.8,24.8,50.9,23.6,50.9,21.9z"
			/>
		<path class="st0" d="M60.6,9.8h4.9v2.6h0.1c1.6-1.9,3.7-2.9,6.3-2.9c2,0,3.8,0.7,5.5,2.1c1.6,1.4,2.5,3.5,2.6,6.3V34h-4.9V19.6
			c0-1.7-0.4-3-1.4-3.9c-0.9-0.9-2-1.4-3.4-1.4s-2.6,0.4-3.5,1.4c-0.9,0.9-1.4,2.2-1.4,3.9V34h-4.9L60.6,9.8L60.6,9.8z"/>
		<path class="st0" d="M99,31.5c-1.6,1.8-3.7,2.8-6.3,2.8c-1.4,0-2.7-0.3-3.8-0.9c-1.1-0.5-2-1.3-2.7-2.2c-0.7-0.8-1.1-1.8-1.3-3.1
			c-0.3-1.2-0.4-3.3-0.4-6.2s0.1-5,0.4-6.2c0.2-1.2,0.7-2.2,1.3-3c1.4-2,3.5-3.1,6.5-3.2c1.2,0,2.4,0.2,3.4,0.8
			c1,0.6,1.9,1.2,2.8,2.1V0h4.9v34H99C99,34,99,31.5,99,31.5z M94.2,14.4c-1.2,0-2,0.2-2.6,0.6c-0.7,0.4-1.2,1-1.5,1.7
			c-0.3,0.7-0.5,1.5-0.6,2.4c-0.1,0.9-0.1,1.9-0.1,2.8s0.1,1.8,0.1,2.7c0.1,0.9,0.3,1.7,0.6,2.5c0.3,0.7,0.8,1.3,1.5,1.7
			c0.6,0.5,1.5,0.7,2.6,0.7s2.1-0.2,2.7-0.7c0.7-0.4,1.1-1,1.4-1.8c0.3-0.7,0.5-1.5,0.6-2.5c0-0.9,0.1-1.8,0.1-2.6
			c0-0.9,0-1.8-0.1-2.7c-0.1-0.9-0.3-1.6-0.6-2.4c-0.2-0.7-0.7-1.3-1.4-1.8C96.3,14.6,95.4,14.4,94.2,14.4L94.2,14.4z"/>
		<path class="st0" d="M113.4,23.8c0,2,0.6,3.4,1.7,4.4c1,1,2.4,1.5,4.1,1.5c2,0,3.8-0.8,5.3-2.4l3.5,3c-2.5,2.7-5.4,4-8.7,3.9
			c-1.3,0-2.5-0.2-3.7-0.6c-0.6-0.2-1.2-0.5-1.8-0.8c-0.6-0.3-1.2-0.7-1.7-1.1c-1-0.9-1.9-2.2-2.5-3.8c-0.7-1.6-1.1-3.6-1.1-6.1
			s0.3-4.4,0.9-6c0.6-1.6,1.4-2.9,2.3-3.8c1-0.9,2-1.6,3.2-2.1c1.2-0.4,2.4-0.6,3.5-0.6c2.8,0,5.1,0.9,7,2.7c2,1.8,2.9,4.3,3,7.5v4
			L113.4,23.8L113.4,23.8z M123.7,19.8c-0.1-1.9-0.6-3.3-1.5-4.3c-0.9-0.9-2.1-1.4-3.6-1.4s-2.7,0.4-3.6,1.4c-0.9,1-1.4,2.4-1.5,4.3
			C113.4,19.8,123.7,19.8,123.7,19.8z"/>
		<path class="st0" d="M133.2,9.8h4.9v2.6h0.1c1.6-1.9,3.7-2.9,6.3-2.9c2,0,3.6,0.6,5.1,1.9l-3.6,4.2c-1-0.8-2.1-1.2-3.2-1.2
			c-1.2,0-2.3,0.4-3.2,1.2c-1,0.8-1.5,2.1-1.5,3.9V34h-4.9L133.2,9.8L133.2,9.8z"/>
	</g>
	<path class="st0" d="M60.5,58.7h4.9v4.9h-4.9C60.5,63.6,60.5,58.7,60.5,58.7z M60.5,69.6h4.9v4.9h-4.9
		C60.5,74.4,60.5,69.6,60.5,69.6z"/>
</g>
<g>
	<g>
		<path class="st1" d="M72.6,53.9h-2.4v-3.7h2.4V47c0-2.3,0.6-4,1.9-5.1c1.2-1,2.8-1.5,4.7-1.5h3.2V45h-2.8c-1.4,0-2.2,0.6-2.1,2
			v3.2h4.9v3.7h-4.9v20.5h-4.9L72.6,53.9L72.6,53.9z"/>
		<path class="st1" d="M89.2,64.2c0,1.9,0.6,3.4,1.7,4.4c1,1,2.4,1.5,4.1,1.5c2,0,3.8-0.8,5.3-2.4l3.5,3c-2.5,2.7-5.4,4-8.7,3.9
			c-1.3,0-2.5-0.2-3.8-0.6c-0.6-0.2-1.2-0.5-1.8-0.8c-0.6-0.3-1.2-0.7-1.7-1.1c-1-0.9-1.9-2.2-2.5-3.8c-0.7-1.6-1-3.6-1-6.1
			s0.3-4.4,0.9-6c0.6-1.6,1.4-2.9,2.3-3.8c1-1,2.1-1.6,3.2-2c1.2-0.4,2.3-0.6,3.5-0.6c2.8,0,5.1,1,7,2.7c2,1.8,2.9,4.3,3,7.5v4
			L89.2,64.2L89.2,64.2z M99.4,60.2c-0.1-1.9-0.6-3.3-1.5-4.3c-0.9-0.9-2.1-1.4-3.6-1.4s-2.7,0.5-3.6,1.4c-0.9,1-1.4,2.4-1.5,4.3
			H99.4z"/>
		<path class="st1" d="M113.4,64.2c0,1.9,0.6,3.4,1.7,4.4c1.1,1,2.4,1.5,4.1,1.5c2,0,3.7-0.8,5.3-2.4l3.5,3c-2.5,2.7-5.4,4-8.7,3.9
			c-1.3,0-2.5-0.2-3.7-0.6c-0.6-0.2-1.2-0.5-1.8-0.8c-0.6-0.3-1.2-0.7-1.7-1.1c-1-0.9-1.9-2.2-2.5-3.8c-0.7-1.6-1-3.6-1-6.1
			s0.3-4.4,0.9-6c0.6-1.6,1.4-2.9,2.3-3.8c1-1,2.1-1.6,3.2-2c1.2-0.4,2.3-0.6,3.5-0.6c2.8,0,5.1,1,7,2.7c1.9,1.8,2.9,4.3,3,7.5v4
			L113.4,64.2L113.4,64.2z M123.7,60.2c-0.1-1.9-0.6-3.3-1.5-4.3c-0.9-0.9-2.1-1.4-3.6-1.4s-2.7,0.5-3.6,1.4c-0.9,1-1.4,2.4-1.5,4.3
			C113.5,60.2,123.7,60.2,123.7,60.2z"/>
		<path class="st1" d="M133.2,40.4h4.9v27.8c0,1.1,0.6,1.7,1.8,1.7h1.7v4.6h-2.2c-1.8,0-3.2-0.4-4.4-1.3c-1.2-0.9-1.8-2.4-1.8-4.6
			L133.2,40.4L133.2,40.4z"/>
	</g>
	<path class="st1" d="M140.9,45.5c-0.3-0.5-0.4-1.1-0.4-1.8s0.1-1.2,0.4-1.7s0.7-0.9,1.2-1.2c0.5-0.3,1.1-0.4,1.7-0.4
		s1.2,0.2,1.7,0.4c0.5,0.3,0.9,0.7,1.2,1.2s0.4,1.1,0.4,1.7s-0.1,1.2-0.4,1.8c-0.3,0.5-0.7,0.9-1.2,1.2c-0.5,0.3-1.1,0.5-1.7,0.5
		s-1.2-0.2-1.7-0.5C141.6,46.5,141.2,46.1,140.9,45.5L140.9,45.5z M146.6,43.8c0-0.5-0.1-1-0.4-1.5s-0.6-0.8-1-1
		c-0.4-0.2-0.9-0.4-1.4-0.4c-0.8,0-1.4,0.3-2,0.8s-0.8,1.2-0.8,2s0.3,1.5,0.8,2.1c0.5,0.5,1.2,0.8,2,0.8s1.5-0.3,2-0.8
		S146.6,44.6,146.6,43.8L146.6,43.8z M144,41.9c0.4,0,0.7,0.1,0.9,0.3c0.2,0.2,0.3,0.5,0.3,0.8c0,0.3-0.1,0.5-0.2,0.7
		s-0.3,0.3-0.5,0.4l0.8,1.6h-0.7l-0.8-1.6h-0.7v1.6h-0.6v-3.8H144z M144.7,43c0-0.4-0.2-0.5-0.6-0.5h-0.8v1.1h0.8
		C144.5,43.5,144.7,43.4,144.7,43z"/>
</g>
</svg>
