<svg xmlns="http://www.w3.org/2000/svg" viewBox="0 0 225 225" width="225" height="225" preserveAspectRatio="xMidYMid meet" style="width: 100%; height: 100%; transform: translate3d(0px, 0px, 0px);"><defs><clipPath id="__lottie_element_2"><rect width="225" height="225" x="0" y="0"></rect></clipPath></defs><g clip-path="url(#__lottie_element_2)"><g style="display: none;" transform="matrix(1,0,0,1,0.00000762939453125,0.0000019073486328125)" opacity="0.00006136852384756254"><g opacity="1" transform="matrix(1,0,0,1,112.48899841308594,23.40999984741211)"><path stroke-linecap="butt" stroke-linejoin="miter" fill-opacity="0" stroke-miterlimit="10" stroke="rgb(255,255,255)" stroke-opacity="1" stroke-width="1" d=" M19.010000228881836,10.904000282287598 C12.98799991607666,21.402999877929688 -0.4050000011920929,25.031999588012695 -10.904000282287598,19.010000228881836 C-21.402999877929688,12.98799991607666 -25.031999588012695,-0.4050000011920929 -19.010000228881836,-10.904000282287598 C-12.98799991607666,-21.402999877929688 0.4050000011920929,-25.031999588012695 10.904000282287598,-19.010000228881836 C21.402999877929688,-12.98799991607666 25.031999588012695,0.40400001406669617 19.010000228881836,10.904000282287598z"></path></g></g><g style="display: none;" transform="matrix(1,0,0,1,0,0)" opacity="0.000046580924871051365"><g opacity="1" transform="matrix(1,0,0,1,150.89599609375,45.441001892089844)"><path stroke-linecap="butt" stroke-linejoin="miter" fill-opacity="0" stroke-miterlimit="10" stroke="rgb(255,255,255)" stroke-opacity="1" stroke-width="1" d=" M19.010000228881836,10.904000282287598 C12.98799991607666,21.402999877929688 -0.4050000011920929,25.031999588012695 -10.904999732971191,19.010000228881836 C-21.40399932861328,12.98799991607666 -25.033000946044922,-0.4050000011920929 -19.01099967956543,-10.904000282287598 C-12.98900032043457,-21.402999877929688 0.4050000011920929,-25.031999588012695 10.904000282287598,-19.010000228881836 C21.402999877929688,-12.98799991607666 25.031999588012695,0.4050000011920929 19.010000228881836,10.904000282287598z"></path></g></g><g style="display: none;" transform="matrix(1,0,0,1,0,0)" opacity="0.00006136852384756254"><g opacity="1" transform="matrix(1,0,0,1,189.34500122070312,67.47100067138672)"><path stroke-linecap="butt" stroke-linejoin="miter" fill-opacity="0" stroke-miterlimit="10" stroke="rgb(255,255,255)" stroke-opacity="1" stroke-width="1" d=" M19.010000228881836,10.904000282287598 C12.98799991607666,21.402999877929688 -0.4050000011920929,25.031999588012695 -10.904000282287598,19.010000228881836 C-21.402999877929688,12.98799991607666 -25.031999588012695,-0.4050000011920929 -19.01099967956543,-10.904000282287598 C-12.98900032043457,-21.402999877929688 0.4050000011920929,-25.031999588012695 10.904000282287598,-19.009000778198242 C21.402999877929688,-12.987000465393066 25.031999588012695,0.4050000011920929 19.010000228881836,10.904000282287598z"></path></g></g><g style="display: none;" transform="matrix(1,0,0,1,0,0)" opacity="0.00006136852384756254"><g opacity="1" transform="matrix(1,0,0,1,74.0510025024414,45.87300109863281)"><path stroke-linecap="butt" stroke-linejoin="miter" fill-opacity="0" stroke-miterlimit="10" stroke="rgb(255,255,255)" stroke-opacity="1" stroke-width="1" d=" M19.010000228881836,10.904000282287598 C12.98799991607666,21.402999877929688 -0.4050000011920929,25.031999588012695 -10.904000282287598,19.010000228881836 C-21.402999877929688,12.98799991607666 -25.031999588012695,-0.4050000011920929 -19.01099967956543,-10.904000282287598 C-12.98900032043457,-21.402999877929688 0.4050000011920929,-25.031999588012695 10.904000282287598,-19.009000778198242 C21.402999877929688,-12.987000465393066 25.031999588012695,0.4050000011920929 19.010000228881836,10.904000282287598z"></path></g></g><g style="display: none;" transform="matrix(1,0,0,1,0.00000762939453125,0)" opacity="0.00004209301978846724"><g opacity="1" transform="matrix(1,0,0,1,112.48899841308594,67.90399932861328)"><path stroke-linecap="butt" stroke-linejoin="miter" fill-opacity="0" stroke-miterlimit="10" stroke="rgb(255,255,255)" stroke-opacity="1" stroke-width="1" d=" M19.010000228881836,10.904000282287598 C12.98799991607666,21.402999877929688 -0.4050000011920929,25.031999588012695 -10.904000282287598,19.010000228881836 C-21.402999877929688,12.98799991607666 -25.031999588012695,-0.4050000011920929 -19.010000228881836,-10.904000282287598 C-12.98799991607666,-21.402999877929688 0.4050000011920929,-25.031999588012695 10.904000282287598,-19.010000228881836 C21.402999877929688,-12.987000465393066 25.031999588012695,0.4050000011920929 19.010000228881836,10.904000282287598z"></path></g></g><g style="display: none;" transform="matrix(1,0,0,1,0,0)" opacity="0.000029964938561022338"><g opacity="1" transform="matrix(1,0,0,1,150.89599609375,89.93499755859375)"><path stroke-linecap="butt" stroke-linejoin="miter" fill-opacity="0" stroke-miterlimit="10" stroke="rgb(255,255,255)" stroke-opacity="1" stroke-width="1" d=" M19.010000228881836,10.904000282287598 C12.98799991607666,21.40399932861328 -0.4050000011920929,25.031999588012695 -10.904999732971191,19.010000228881836 C-21.40399932861328,12.98799991607666 -25.033000946044922,-0.4050000011920929 -19.01099967956543,-10.904000282287598 C-12.98900032043457,-21.402999877929688 0.4050000011920929,-25.031999588012695 10.904000282287598,-19.010000228881836 C21.402999877929688,-12.98799991607666 25.031999588012695,0.4050000011920929 19.010000228881836,10.904000282287598z"></path></g></g><g style="display: none;" transform="matrix(1,0,0,1,0,0)" opacity="0.00007232188343735402"><g opacity="1" transform="matrix(1,0,0,1,189.34500122070312,111.96499633789062)"><path stroke-linecap="butt" stroke-linejoin="miter" fill-opacity="0" stroke-miterlimit="10" stroke="rgb(255,255,255)" stroke-opacity="1" stroke-width="1" d=" M19.010000228881836,10.904000282287598 C12.98799991607666,21.402999877929688 -0.4050000011920929,25.031999588012695 -10.904000282287598,19.010000228881836 C-21.402999877929688,12.98799991607666 -25.031999588012695,-0.4050000011920929 -19.01099967956543,-10.904000282287598 C-12.98900032043457,-21.402999877929688 0.4050000011920929,-25.033000946044922 10.904000282287598,-19.010000228881836 C21.402999877929688,-12.98799991607666 25.031999588012695,0.4050000011920929 19.010000228881836,10.904000282287598z"></path></g></g><g style="display: none;" transform="matrix(1,0,0,1,0.000003814697265625,0)" opacity="0.000046580924871051365"><g opacity="1" transform="matrix(1,0,0,1,35.654998779296875,68.43800354003906)"><path stroke-linecap="butt" stroke-linejoin="miter" fill-opacity="0" stroke-miterlimit="10" stroke="rgb(255,255,255)" stroke-opacity="1" stroke-width="1" d=" M19.010000228881836,10.904000282287598 C12.98799991607666,21.402999877929688 -0.4059999883174896,25.031999588012695 -10.904999732971191,19.010000228881836 C-21.40399932861328,12.98799991607666 -25.031999588012695,-0.4050000011920929 -19.010000228881836,-10.904000282287598 C-12.98799991607666,-21.402999877929688 0.4050000011920929,-25.031999588012695 10.904000282287598,-19.010000228881836 C21.402999877929688,-12.987000465393066 25.031999588012695,0.4050000011920929 19.010000228881836,10.904000282287598z"></path></g></g><g style="display: none;" transform="matrix(1,0,0,1,0,0)" opacity="0.000029964938561022338"><g opacity="1" transform="matrix(1,0,0,1,74.0510025024414,90.46900177001953)"><path stroke-linecap="butt" stroke-linejoin="miter" fill-opacity="0" stroke-miterlimit="10" stroke="rgb(255,255,255)" stroke-opacity="1" stroke-width="1" d=" M19.010000228881836,10.904000282287598 C12.98799991607666,21.402999877929688 -0.4050000011920929,25.031999588012695 -10.904000282287598,19.010000228881836 C-21.402999877929688,12.98799991607666 -25.031999588012695,-0.4050000011920929 -19.01099967956543,-10.904000282287598 C-12.98900032043457,-21.402999877929688 0.4050000011920929,-25.031999588012695 10.904000282287598,-19.010000228881836 C21.402999877929688,-12.98799991607666 25.031999588012695,0.40400001406669617 19.010000228881836,10.904000282287598z"></path></g></g><g style="display: none;" transform="matrix(1,0,0,1,0.00000762939453125,0)" opacity="0.0000042688749481101245"><g opacity="1" transform="matrix(1,0,0,1,112.48899841308594,112.5)"><path stroke-linecap="butt" stroke-linejoin="miter" fill-opacity="0" stroke-miterlimit="10" stroke="rgb(255,255,255)" stroke-opacity="1" stroke-width="1" d=" M19.010000228881836,10.904000282287598 C12.98799991607666,21.402999877929688 -0.4050000011920929,25.031999588012695 -10.904000282287598,19.010000228881836 C-21.402999877929688,12.98799991607666 -25.031999588012695,-0.4050000011920929 -19.010000228881836,-10.904000282287598 C-12.98799991607666,-21.402999877929688 0.4050000011920929,-25.031999588012695 10.904000282287598,-19.010000228881836 C21.402999877929688,-12.98799991607666 25.031999588012695,0.4050000011920929 19.010000228881836,10.904000282287598z"></path></g></g><g style="display: none;" transform="matrix(1,0,0,1,0,0)" opacity="0.000014254898376719893"><g opacity="1" transform="matrix(1,0,0,1,150.89599609375,134.52999877929688)"><path stroke-linecap="butt" stroke-linejoin="miter" fill-opacity="0" stroke-miterlimit="10" stroke="rgb(255,255,255)" stroke-opacity="1" stroke-width="1" d=" M19.010000228881836,10.904000282287598 C12.98799991607666,21.402999877929688 -0.4050000011920929,25.031999588012695 -10.904999732971191,19.010000228881836 C-21.40399932861328,12.98799991607666 -25.033000946044922,-0.4050000011920929 -19.01099967956543,-10.904000282287598 C-12.98900032043457,-21.402999877929688 0.4050000011920929,-25.033000946044922 10.904000282287598,-19.010000228881836 C21.402999877929688,-12.98799991607666 25.031999588012695,0.4050000011920929 19.010000228881836,10.904000282287598z"></path></g></g><g style="display: none;" transform="matrix(1,0,0,1,0,0)" opacity="0.00003378417947004664"><g opacity="1" transform="matrix(1,0,0,1,189.34500122070312,156.56100463867188)"><path stroke-linecap="butt" stroke-linejoin="miter" fill-opacity="0" stroke-miterlimit="10" stroke="rgb(255,255,255)" stroke-opacity="1" stroke-width="1" d=" M19.010000228881836,10.904000282287598 C12.98799991607666,21.402999877929688 -0.4050000011920929,25.031999588012695 -10.904000282287598,19.010000228881836 C-21.402999877929688,12.98799991607666 -25.031999588012695,-0.4050000011920929 -19.01099967956543,-10.904000282287598 C-12.98900032043457,-21.402999877929688 0.4050000011920929,-25.033000946044922 10.904000282287598,-19.01099967956543 C21.402999877929688,-12.98799991607666 25.031999588012695,0.4050000011920929 19.010000228881836,10.904000282287598z"></path></g></g><g style="display: none;" transform="matrix(1,0,0,1,0.000003814697265625,0)" opacity="0.00003378417947004664"><g opacity="1" transform="matrix(1,0,0,1,35.654998779296875,112.93299865722656)"><path stroke-linecap="butt" stroke-linejoin="miter" fill-opacity="0" stroke-miterlimit="10" stroke="rgb(255,255,255)" stroke-opacity="1" stroke-width="1" d=" M19.010000228881836,10.904000282287598 C12.98799991607666,21.402999877929688 -0.4059999883174896,25.031999588012695 -10.904999732971191,19.010000228881836 C-21.40399932861328,12.98799991607666 -25.031999588012695,-0.4050000011920929 -19.010000228881836,-10.904000282287598 C-12.98799991607666,-21.402999877929688 0.4050000011920929,-25.033000946044922 10.904000282287598,-19.01099967956543 C21.402999877929688,-12.98799991607666 25.031999588012695,0.4050000011920929 19.010000228881836,10.904000282287598z"></path></g></g><g style="display: none;" transform="matrix(1,0,0,1,0,0)" opacity="0.000011796224390678844"><g opacity="1" transform="matrix(1,0,0,1,74.0510025024414,134.96299743652344)"><path stroke-linecap="butt" stroke-linejoin="miter" fill-opacity="0" stroke-miterlimit="10" stroke="rgb(255,255,255)" stroke-opacity="1" stroke-width="1" d=" M19.010000228881836,10.904999732971191 C12.98799991607666,21.40399932861328 -0.4050000011920929,25.031999588012695 -10.904000282287598,19.010000228881836 C-21.402999877929688,12.98799991607666 -25.031999588012695,-0.40400001406669617 -19.01099967956543,-10.902999877929688 C-12.98900032043457,-21.402000427246094 0.4050000011920929,-25.031999588012695 10.904000282287598,-19.010000228881836 C21.402999877929688,-12.98799991607666 25.031999588012695,0.4050000011920929 19.010000228881836,10.904999732971191z"></path></g></g><g style="display: none;" transform="matrix(1,0,0,1,0.00000762939453125,0)" opacity="0.000011796224390678844"><g opacity="1" transform="matrix(1,0,0,1,112.48899841308594,156.9949951171875)"><path stroke-linecap="butt" stroke-linejoin="miter" fill-opacity="0" stroke-miterlimit="10" stroke="rgb(255,255,255)" stroke-opacity="1" stroke-width="1" d=" M19.010000228881836,10.902999877929688 C12.98799991607666,21.402000427246094 -0.4050000011920929,25.031999588012695 -10.904000282287598,19.009000778198242 C-21.402999877929688,12.987000465393066 -25.031999588012695,-0.4059999883174896 -19.010000228881836,-10.904999732971191 C-12.98799991607666,-21.40399932861328 0.4050000011920929,-25.031999588012695 10.904000282287598,-19.010000228881836 C21.402999877929688,-12.98799991607666 25.031999588012695,0.40400001406669617 19.010000228881836,10.902999877929688z"></path></g></g><g style="display: none;" transform="matrix(1,0,0,1,0,0)" opacity="0.00003378417946976242"><g opacity="1" transform="matrix(1,0,0,1,150.89599609375,179.02499389648438)"><path stroke-linecap="butt" stroke-linejoin="miter" fill-opacity="0" stroke-miterlimit="10" stroke="rgb(255,255,255)" stroke-opacity="1" stroke-width="1" d=" M19.010000228881836,10.904000282287598 C12.98799991607666,21.402999877929688 -0.4050000011920929,25.031999588012695 -10.904999732971191,19.009000778198242 C-21.40399932861328,12.98799991607666 -25.033000946044922,-0.4050000011920929 -19.01099967956543,-10.904000282287598 C-12.98900032043457,-21.402999877929688 0.4050000011920929,-25.033000946044922 10.904000282287598,-19.01099967956543 C21.402999877929688,-12.98900032043457 25.031999588012695,0.40400001406669617 19.010000228881836,10.904000282287598z"></path></g></g><g style="display: none;" transform="matrix(1,0,0,1,0.000003814697265625,0)" opacity="0.05708276399795196"><g opacity="1" transform="matrix(1,0,0,1,35.654998779296875,157.5290069580078)"><path stroke-linecap="butt" stroke-linejoin="miter" fill-opacity="0" stroke-miterlimit="10" stroke="rgb(255,255,255)" stroke-opacity="1" stroke-width="1" d=" M19.010000228881836,10.904000282287598 C12.98799991607666,21.402999877929688 -0.4059999883174896,25.033000946044922 -10.904999732971191,19.010000228881836 C-21.40399932861328,12.98799991607666 -25.031999588012695,-0.4050000011920929 -19.010000228881836,-10.904000282287598 C-12.98799991607666,-21.402999877929688 0.4050000011920929,-25.031999588012695 10.904000282287598,-19.010000228881836 C21.402999877929688,-12.98799991607666 25.031999588012695,0.4050000011920929 19.010000228881836,10.904000282287598z"></path></g></g><g style="display: none;" transform="matrix(1,0,0,1,0,0)" opacity="0.000023001091413163977"><g opacity="1" transform="matrix(1,0,0,1,74.0510025024414,179.5590057373047)"><path stroke-linecap="butt" stroke-linejoin="miter" fill-opacity="0" stroke-miterlimit="10" stroke="rgb(255,255,255)" stroke-opacity="1" stroke-width="1" d=" M19.010000228881836,10.904999732971191 C12.98799991607666,21.40399932861328 -0.4050000011920929,25.033000946044922 -10.904000282287598,19.010000228881836 C-21.402999877929688,12.98900032043457 -25.031999588012695,-0.4050000011920929 -19.01099967956543,-10.904000282287598 C-12.98900032043457,-21.402999877929688 0.4050000011920929,-25.031999588012695 10.904000282287598,-19.010000228881836 C21.402999877929688,-12.98799991607666 25.031999588012695,0.4059999883174896 19.010000228881836,10.904999732971191z"></path></g></g><g style="display: none;" transform="matrix(1,0,0,1,0.00000762939453125,0)" opacity="0.000014254898376862001"><g opacity="1" transform="matrix(1,0,0,1,112.48899841308594,201.58900451660156)"><path stroke-linecap="butt" stroke-linejoin="miter" fill-opacity="0" stroke-miterlimit="10" stroke="rgb(255,255,255)" stroke-opacity="1" stroke-width="1" d=" M19.010000228881836,10.904000282287598 C12.98799991607666,21.402999877929688 -0.4050000011920929,25.031999588012695 -10.904000282287598,19.010000228881836 C-21.402999877929688,12.98799991607666 -25.031999588012695,-0.4050000011920929 -19.010000228881836,-10.904000282287598 C-12.98799991607666,-21.402999877929688 0.4050000011920929,-25.033000946044922 10.904000282287598,-19.010000228881836 C21.402999877929688,-12.98900032043457 25.031999588012695,0.4050000011920929 19.010000228881836,10.904000282287598z"></path></g></g><g style="display: block;" transform="matrix(0.9999999403953552,0,0,0.9999999403953552,0.0000152587890625,0.00000762939453125)" opacity="1"><g opacity="1" transform="matrix(1,0,0,1,112.48899841308594,112.5)"><path stroke-linecap="butt" stroke-linejoin="miter" fill-opacity="0" stroke-miterlimit="10" stroke="rgb(255,255,255)" stroke-opacity="1" stroke-width="1" d=" M19.010000228881836,10.904000282287598 C12.98799991607666,21.402999877929688 -0.4050000011920929,25.031999588012695 -10.904000282287598,19.010000228881836 C-21.402999877929688,12.98799991607666 -25.031999588012695,-0.4050000011920929 -19.010000228881836,-10.904000282287598 C-12.98799991607666,-21.402999877929688 0.4050000011920929,-25.031999588012695 10.904000282287598,-19.010000228881836 C21.402999877929688,-12.98799991607666 25.031999588012695,0.4050000011920929 19.010000228881836,10.904000282287598z"></path><path fill="rgb(255,255,255)" fill-opacity="1" d=" M19.010000228881836,10.904000282287598 C12.98799991607666,21.402999877929688 -0.4050000011920929,25.031999588012695 -10.904000282287598,19.010000228881836 C-21.402999877929688,12.98799991607666 -25.031999588012695,-0.4050000011920929 -19.010000228881836,-10.904000282287598 C-12.98799991607666,-21.402999877929688 0.4050000011920929,-25.031999588012695 10.904000282287598,-19.010000228881836 C21.402999877929688,-12.98799991607666 25.031999588012695,0.4050000011920929 19.010000228881836,10.904000282287598z"></path></g></g><g style="display: none;" transform="matrix(0.9999999403953552,0,0,0.9999999403953552,0.0000152587890625,0.0000152587890625)" opacity="0.000012007843863415247"><g opacity="1" transform="matrix(1,0,0,1,150.89599609375,134.52999877929688)"><path fill="rgb(255,255,255)" fill-opacity="1" d=" M19.010000228881836,10.904000282287598 C12.98799991607666,21.402999877929688 -0.4050000011920929,25.031999588012695 -10.904999732971191,19.010000228881836 C-21.40399932861328,12.98799991607666 -25.033000946044922,-0.4050000011920929 -19.01099967956543,-10.904000282287598 C-12.98900032043457,-21.402999877929688 0.4050000011920929,-25.033000946044922 10.904000282287598,-19.010000228881836 C21.402999877929688,-12.98799991607666 25.031999588012695,0.4050000011920929 19.010000228881836,10.904000282287598z"></path><path stroke-linecap="butt" stroke-linejoin="miter" fill-opacity="0" stroke-miterlimit="10" stroke="rgb(255,255,255)" stroke-opacity="1" stroke-width="1" d=" M19.010000228881836,10.904000282287598 C12.98799991607666,21.402999877929688 -0.4050000011920929,25.031999588012695 -10.904999732971191,19.010000228881836 C-21.40399932861328,12.98799991607666 -25.033000946044922,-0.4050000011920929 -19.01099967956543,-10.904000282287598 C-12.98900032043457,-21.402999877929688 0.4050000011920929,-25.033000946044922 10.904000282287598,-19.010000228881836 C21.402999877929688,-12.98799991607666 25.031999588012695,0.4050000011920929 19.010000228881836,10.904000282287598z"></path></g></g><g style="display: block;" transform="matrix(0.9999999403953552,0,0,0.9999999403953552,0.0000152587890625,0.0000152587890625)" opacity="1"><g opacity="1" transform="matrix(1,0,0,1,112.48899841308594,156.9949951171875)"><path fill="rgb(255,255,255)" fill-opacity="1" d=" M19.010000228881836,10.902999877929688 C12.98799991607666,21.402000427246094 -0.4050000011920929,25.031999588012695 -10.904000282287598,19.009000778198242 C-21.402999877929688,12.987000465393066 -25.031999588012695,-0.4059999883174896 -19.010000228881836,-10.904999732971191 C-12.98799991607666,-21.40399932861328 0.4050000011920929,-25.031999588012695 10.904000282287598,-19.010000228881836 C21.402999877929688,-12.98799991607666 25.031999588012695,0.40400001406669617 19.010000228881836,10.902999877929688z"></path><path stroke-linecap="butt" stroke-linejoin="miter" fill-opacity="0" stroke-miterlimit="10" stroke="rgb(255,255,255)" stroke-opacity="1" stroke-width="1" d=" M19.010000228881836,10.902999877929688 C12.98799991607666,21.402000427246094 -0.4050000011920929,25.031999588012695 -10.904000282287598,19.009000778198242 C-21.402999877929688,12.987000465393066 -25.031999588012695,-0.4059999883174896 -19.010000228881836,-10.904999732971191 C-12.98799991607666,-21.40399932861328 0.4050000011920929,-25.031999588012695 10.904000282287598,-19.010000228881836 C21.402999877929688,-12.98799991607666 25.031999588012695,0.40400001406669617 19.010000228881836,10.902999877929688z"></path></g></g><g style="display: block;" transform="matrix(0.9999999403953552,0,0,0.9999999403953552,0.00000762939453125,0.0000152587890625)" opacity="1"><g opacity="1" transform="matrix(1,0,0,1,74.0510025024414,134.96299743652344)"><path fill="rgb(255,255,255)" fill-opacity="1" d=" M19.010000228881836,10.904999732971191 C12.98799991607666,21.40399932861328 -0.4050000011920929,25.031999588012695 -10.904000282287598,19.010000228881836 C-21.402999877929688,12.98799991607666 -25.031999588012695,-0.40400001406669617 -19.01099967956543,-10.902999877929688 C-12.98900032043457,-21.402000427246094 0.4050000011920929,-25.031999588012695 10.904000282287598,-19.010000228881836 C21.402999877929688,-12.98799991607666 25.031999588012695,0.4050000011920929 19.010000228881836,10.904999732971191z"></path><path stroke-linecap="butt" stroke-linejoin="miter" fill-opacity="0" stroke-miterlimit="10" stroke="rgb(255,255,255)" stroke-opacity="1" stroke-width="1" d=" M19.010000228881836,10.904999732971191 C12.98799991607666,21.40399932861328 -0.4050000011920929,25.031999588012695 -10.904000282287598,19.010000228881836 C-21.402999877929688,12.98799991607666 -25.031999588012695,-0.40400001406669617 -19.01099967956543,-10.902999877929688 C-12.98900032043457,-21.402000427246094 0.4050000011920929,-25.031999588012695 10.904000282287598,-19.010000228881836 C21.402999877929688,-12.98799991607666 25.031999588012695,0.4050000011920929 19.010000228881836,10.904999732971191z"></path></g></g><g style="display: block;" transform="matrix(0.9999999403953552,0,0,0.9999999403953552,0.00000762939453125,0.0000152587890625)" opacity="1"><g opacity="1" transform="matrix(1,0,0,1,35.654998779296875,157.5290069580078)"><path fill="rgb(255,255,255)" fill-opacity="1" d=" M19.010000228881836,10.904000282287598 C12.98799991607666,21.402999877929688 -0.4059999883174896,25.033000946044922 -10.904999732971191,19.010000228881836 C-21.40399932861328,12.98799991607666 -25.031999588012695,-0.4050000011920929 -19.010000228881836,-10.904000282287598 C-12.98799991607666,-21.402999877929688 0.4050000011920929,-25.031999588012695 10.904000282287598,-19.010000228881836 C21.402999877929688,-12.98799991607666 25.031999588012695,0.4050000011920929 19.010000228881836,10.904000282287598z"></path><path stroke-linecap="butt" stroke-linejoin="miter" fill-opacity="0" stroke-miterlimit="10" stroke="rgb(255,255,255)" stroke-opacity="1" stroke-width="1" d=" M19.010000228881836,10.904000282287598 C12.98799991607666,21.402999877929688 -0.4059999883174896,25.033000946044922 -10.904999732971191,19.010000228881836 C-21.40399932861328,12.98799991607666 -25.031999588012695,-0.4050000011920929 -19.010000228881836,-10.904000282287598 C-12.98799991607666,-21.402999877929688 0.4050000011920929,-25.031999588012695 10.904000282287598,-19.010000228881836 C21.402999877929688,-12.98799991607666 25.031999588012695,0.4050000011920929 19.010000228881836,10.904000282287598z"></path></g></g><g style="display: block;" transform="matrix(0.9999997615814209,0,0,0.9999997615814209,0.0000152587890625,0.0000457763671875)" opacity="1"><g opacity="1" transform="matrix(1,0,0,1,74.0510025024414,179.5590057373047)"><path fill="rgb(255,255,255)" fill-opacity="1" d=" M19.010000228881836,10.904999732971191 C12.98799991607666,21.40399932861328 -0.4050000011920929,25.033000946044922 -10.904000282287598,19.010000228881836 C-21.402999877929688,12.98900032043457 -25.031999588012695,-0.4050000011920929 -19.01099967956543,-10.904000282287598 C-12.98900032043457,-21.402999877929688 0.4050000011920929,-25.031999588012695 10.904000282287598,-19.010000228881836 C21.402999877929688,-12.98799991607666 25.031999588012695,0.4059999883174896 19.010000228881836,10.904999732971191z"></path><path stroke-linecap="butt" stroke-linejoin="miter" fill-opacity="0" stroke-miterlimit="10" stroke="rgb(255,255,255)" stroke-opacity="1" stroke-width="1" d=" M19.010000228881836,10.904999732971191 C12.98799991607666,21.40399932861328 -0.4050000011920929,25.033000946044922 -10.904000282287598,19.010000228881836 C-21.402999877929688,12.98900032043457 -25.031999588012695,-0.4050000011920929 -19.01099967956543,-10.904000282287598 C-12.98900032043457,-21.402999877929688 0.4050000011920929,-25.031999588012695 10.904000282287598,-19.010000228881836 C21.402999877929688,-12.98799991607666 25.031999588012695,0.4059999883174896 19.010000228881836,10.904999732971191z"></path></g></g><g style="display: none;" transform="matrix(0.9999997615814209,0,0,0.9999997615814209,0.00003814697265625,0.0000457763671875)" opacity="0.000012007843863273138"><g opacity="1" transform="matrix(1,0,0,1,112.48899841308594,201.58900451660156)"><path fill="rgb(255,255,255)" fill-opacity="1" d=" M19.010000228881836,10.904000282287598 C12.98799991607666,21.402999877929688 -0.4050000011920929,25.031999588012695 -10.904000282287598,19.010000228881836 C-21.402999877929688,12.98799991607666 -25.031999588012695,-0.4050000011920929 -19.010000228881836,-10.904000282287598 C-12.98799991607666,-21.402999877929688 0.4050000011920929,-25.033000946044922 10.904000282287598,-19.010000228881836 C21.402999877929688,-12.98900032043457 25.031999588012695,0.4050000011920929 19.010000228881836,10.904000282287598z"></path><path stroke-linecap="butt" stroke-linejoin="miter" fill-opacity="0" stroke-miterlimit="10" stroke="rgb(255,255,255)" stroke-opacity="1" stroke-width="1" d=" M19.010000228881836,10.904000282287598 C12.98799991607666,21.402999877929688 -0.4050000011920929,25.031999588012695 -10.904000282287598,19.010000228881836 C-21.402999877929688,12.98799991607666 -25.031999588012695,-0.4050000011920929 -19.010000228881836,-10.904000282287598 C-12.98799991607666,-21.402999877929688 0.4050000011920929,-25.033000946044922 10.904000282287598,-19.010000228881836 C21.402999877929688,-12.98900032043457 25.031999588012695,0.4050000011920929 19.010000228881836,10.904000282287598z"></path></g></g><g style="display: block;" transform="matrix(0.9999997615814209,0,0,0.9999997615814209,0.000030517578125,0.0000457763671875)" opacity="1"><g opacity="1" transform="matrix(1,0,0,1,150.89599609375,179.02499389648438)"><path fill="rgb(255,255,255)" fill-opacity="1" d=" M19.010000228881836,10.904000282287598 C12.98799991607666,21.402999877929688 -0.4050000011920929,25.031999588012695 -10.904999732971191,19.009000778198242 C-21.40399932861328,12.98799991607666 -25.033000946044922,-0.4050000011920929 -19.01099967956543,-10.904000282287598 C-12.98900032043457,-21.402999877929688 0.4050000011920929,-25.033000946044922 10.904000282287598,-19.01099967956543 C21.402999877929688,-12.98900032043457 25.031999588012695,0.40400001406669617 19.010000228881836,10.904000282287598z"></path><path stroke-linecap="butt" stroke-linejoin="miter" fill-opacity="0" stroke-miterlimit="10" stroke="rgb(255,255,255)" stroke-opacity="1" stroke-width="1" d=" M19.010000228881836,10.904000282287598 C12.98799991607666,21.402999877929688 -0.4050000011920929,25.031999588012695 -10.904999732971191,19.009000778198242 C-21.40399932861328,12.98799991607666 -25.033000946044922,-0.4050000011920929 -19.01099967956543,-10.904000282287598 C-12.98900032043457,-21.402999877929688 0.4050000011920929,-25.033000946044922 10.904000282287598,-19.01099967956543 C21.402999877929688,-12.98900032043457 25.031999588012695,0.40400001406669617 19.010000228881836,10.904000282287598z"></path></g></g><g style="display: block;" transform="matrix(0.9999997615814209,0,0,0.9999997615814209,0.0000457763671875,0.000030517578125)" opacity="1"><g opacity="1" transform="matrix(1,0,0,1,189.34500122070312,156.56100463867188)"><path fill="rgb(255,255,255)" fill-opacity="1" d=" M19.010000228881836,10.904000282287598 C12.98799991607666,21.402999877929688 -0.4050000011920929,25.031999588012695 -10.904000282287598,19.010000228881836 C-21.402999877929688,12.98799991607666 -25.031999588012695,-0.4050000011920929 -19.01099967956543,-10.904000282287598 C-12.98900032043457,-21.402999877929688 0.4050000011920929,-25.033000946044922 10.904000282287598,-19.01099967956543 C21.402999877929688,-12.98799991607666 25.031999588012695,0.4050000011920929 19.010000228881836,10.904000282287598z"></path><path stroke-linecap="butt" stroke-linejoin="miter" fill-opacity="0" stroke-miterlimit="10" stroke="rgb(255,255,255)" stroke-opacity="1" stroke-width="1" d=" M19.010000228881836,10.904000282287598 C12.98799991607666,21.402999877929688 -0.4050000011920929,25.031999588012695 -10.904000282287598,19.010000228881836 C-21.402999877929688,12.98799991607666 -25.031999588012695,-0.4050000011920929 -19.01099967956543,-10.904000282287598 C-12.98900032043457,-21.402999877929688 0.4050000011920929,-25.033000946044922 10.904000282287598,-19.01099967956543 C21.402999877929688,-12.98799991607666 25.031999588012695,0.4050000011920929 19.010000228881836,10.904000282287598z"></path></g></g><g style="display: block;" transform="matrix(0.9999997019767761,0,0,0.9999997019767761,0.0000457763671875,0.000030517578125)" opacity="1"><g opacity="1" transform="matrix(1,0,0,1,150.89599609375,89.93499755859375)"><path fill="rgb(255,255,255)" fill-opacity="1" d=" M19.010000228881836,10.904000282287598 C12.98799991607666,21.40399932861328 -0.4050000011920929,25.031999588012695 -10.904999732971191,19.010000228881836 C-21.40399932861328,12.98799991607666 -25.033000946044922,-0.4050000011920929 -19.01099967956543,-10.904000282287598 C-12.98900032043457,-21.402999877929688 0.4050000011920929,-25.031999588012695 10.904000282287598,-19.010000228881836 C21.402999877929688,-12.98799991607666 25.031999588012695,0.4050000011920929 19.010000228881836,10.904000282287598z"></path><path stroke-linecap="butt" stroke-linejoin="miter" fill-opacity="0" stroke-miterlimit="10" stroke="rgb(255,255,255)" stroke-opacity="1" stroke-width="1" d=" M19.010000228881836,10.904000282287598 C12.98799991607666,21.40399932861328 -0.4050000011920929,25.031999588012695 -10.904999732971191,19.010000228881836 C-21.40399932861328,12.98799991607666 -25.033000946044922,-0.4050000011920929 -19.01099967956543,-10.904000282287598 C-12.98900032043457,-21.402999877929688 0.4050000011920929,-25.031999588012695 10.904000282287598,-19.010000228881836 C21.402999877929688,-12.98799991607666 25.031999588012695,0.4050000011920929 19.010000228881836,10.904000282287598z"></path></g></g><g style="display: none;" transform="matrix(0.9999997019767761,0,0,0.9999997019767761,0.00003814697265625,0.00002288818359375)" opacity="0.000012007843863273138"><g opacity="1" transform="matrix(1,0,0,1,112.48899841308594,67.90399932861328)"><path fill="rgb(255,255,255)" fill-opacity="1" d=" M19.010000228881836,10.904000282287598 C12.98799991607666,21.402999877929688 -0.4050000011920929,25.031999588012695 -10.904000282287598,19.010000228881836 C-21.402999877929688,12.98799991607666 -25.031999588012695,-0.4050000011920929 -19.010000228881836,-10.904000282287598 C-12.98799991607666,-21.402999877929688 0.4050000011920929,-25.031999588012695 10.904000282287598,-19.010000228881836 C21.402999877929688,-12.987000465393066 25.031999588012695,0.4050000011920929 19.010000228881836,10.904000282287598z"></path><path stroke-linecap="butt" stroke-linejoin="miter" fill-opacity="0" stroke-miterlimit="10" stroke="rgb(255,255,255)" stroke-opacity="1" stroke-width="1" d=" M19.010000228881836,10.904000282287598 C12.98799991607666,21.402999877929688 -0.4050000011920929,25.031999588012695 -10.904000282287598,19.010000228881836 C-21.402999877929688,12.98799991607666 -25.031999588012695,-0.4050000011920929 -19.010000228881836,-10.904000282287598 C-12.98799991607666,-21.402999877929688 0.4050000011920929,-25.031999588012695 10.904000282287598,-19.010000228881836 C21.402999877929688,-12.987000465393066 25.031999588012695,0.4050000011920929 19.010000228881836,10.904000282287598z"></path></g></g><g style="display: block;" transform="matrix(0.9999997019767761,0,0,0.9999997019767761,0.00002288818359375,0.000030517578125)" opacity="1"><g opacity="1" transform="matrix(1,0,0,1,74.0510025024414,90.46900177001953)"><path fill="rgb(255,255,255)" fill-opacity="1" d=" M19.010000228881836,10.904000282287598 C12.98799991607666,21.402999877929688 -0.4050000011920929,25.031999588012695 -10.904000282287598,19.010000228881836 C-21.402999877929688,12.98799991607666 -25.031999588012695,-0.4050000011920929 -19.01099967956543,-10.904000282287598 C-12.98900032043457,-21.402999877929688 0.4050000011920929,-25.031999588012695 10.904000282287598,-19.010000228881836 C21.402999877929688,-12.98799991607666 25.031999588012695,0.40400001406669617 19.010000228881836,10.904000282287598z"></path><path stroke-linecap="butt" stroke-linejoin="miter" fill-opacity="0" stroke-miterlimit="10" stroke="rgb(255,255,255)" stroke-opacity="1" stroke-width="1" d=" M19.010000228881836,10.904000282287598 C12.98799991607666,21.402999877929688 -0.4050000011920929,25.031999588012695 -10.904000282287598,19.010000228881836 C-21.402999877929688,12.98799991607666 -25.031999588012695,-0.4050000011920929 -19.01099967956543,-10.904000282287598 C-12.98900032043457,-21.402999877929688 0.4050000011920929,-25.031999588012695 10.904000282287598,-19.010000228881836 C21.402999877929688,-12.98799991607666 25.031999588012695,0.40400001406669617 19.010000228881836,10.904000282287598z"></path></g></g><g style="display: block;" transform="matrix(0.9999997019767761,0,0,0.9999997019767761,0.0000152587890625,0.000030517578125)" opacity="1"><g opacity="1" transform="matrix(1,0,0,1,35.654998779296875,112.93299865722656)"><path fill="rgb(255,255,255)" fill-opacity="1" d=" M19.010000228881836,10.904000282287598 C12.98799991607666,21.402999877929688 -0.4059999883174896,25.031999588012695 -10.904999732971191,19.010000228881836 C-21.40399932861328,12.98799991607666 -25.031999588012695,-0.4050000011920929 -19.010000228881836,-10.904000282287598 C-12.98799991607666,-21.402999877929688 0.4050000011920929,-25.033000946044922 10.904000282287598,-19.01099967956543 C21.402999877929688,-12.98799991607666 25.031999588012695,0.4050000011920929 19.010000228881836,10.904000282287598z"></path><path stroke-linecap="butt" stroke-linejoin="miter" fill-opacity="0" stroke-miterlimit="10" stroke="rgb(255,255,255)" stroke-opacity="1" stroke-width="1" d=" M19.010000228881836,10.904000282287598 C12.98799991607666,21.402999877929688 -0.4059999883174896,25.031999588012695 -10.904999732971191,19.010000228881836 C-21.40399932861328,12.98799991607666 -25.031999588012695,-0.4050000011920929 -19.010000228881836,-10.904000282287598 C-12.98799991607666,-21.402999877929688 0.4050000011920929,-25.033000946044922 10.904000282287598,-19.01099967956543 C21.402999877929688,-12.98799991607666 25.031999588012695,0.4050000011920929 19.010000228881836,10.904000282287598z"></path></g></g><g style="display: block;" transform="matrix(0.9999995231628418,0,0,0.9999995231628418,0.000019073486328125,0.000030517578125)" opacity="0.9970988302067753"><g opacity="1" transform="matrix(1,0,0,1,35.654998779296875,68.43800354003906)"><path fill="rgb(255,255,255)" fill-opacity="1" d=" M19.010000228881836,10.904000282287598 C12.98799991607666,21.402999877929688 -0.4059999883174896,25.031999588012695 -10.904999732971191,19.010000228881836 C-21.40399932861328,12.98799991607666 -25.031999588012695,-0.4050000011920929 -19.010000228881836,-10.904000282287598 C-12.98799991607666,-21.402999877929688 0.4050000011920929,-25.031999588012695 10.904000282287598,-19.010000228881836 C21.402999877929688,-12.987000465393066 25.031999588012695,0.4050000011920929 19.010000228881836,10.904000282287598z"></path><path stroke-linecap="butt" stroke-linejoin="miter" fill-opacity="0" stroke-miterlimit="10" stroke="rgb(255,255,255)" stroke-opacity="1" stroke-width="1" d=" M19.010000228881836,10.904000282287598 C12.98799991607666,21.402999877929688 -0.4059999883174896,25.031999588012695 -10.904999732971191,19.010000228881836 C-21.40399932861328,12.98799991607666 -25.031999588012695,-0.4050000011920929 -19.010000228881836,-10.904000282287598 C-12.98799991607666,-21.402999877929688 0.4050000011920929,-25.031999588012695 10.904000282287598,-19.010000228881836 C21.402999877929688,-12.987000465393066 25.031999588012695,0.4050000011920929 19.010000228881836,10.904000282287598z"></path></g></g><g style="display: block;" transform="matrix(0.9999995231628418,0,0,0.9999995231628418,0.00003814697265625,0.00002288818359375)" opacity="1"><g opacity="1" transform="matrix(1,0,0,1,74.0510025024414,45.87300109863281)"><path fill="rgb(255,255,255)" fill-opacity="1" d=" M19.010000228881836,10.904000282287598 C12.98799991607666,21.402999877929688 -0.4050000011920929,25.031999588012695 -10.904000282287598,19.010000228881836 C-21.402999877929688,12.98799991607666 -25.031999588012695,-0.4050000011920929 -19.01099967956543,-10.904000282287598 C-12.98900032043457,-21.402999877929688 0.4050000011920929,-25.031999588012695 10.904000282287598,-19.009000778198242 C21.402999877929688,-12.987000465393066 25.031999588012695,0.4050000011920929 19.010000228881836,10.904000282287598z"></path><path stroke-linecap="butt" stroke-linejoin="miter" fill-opacity="0" stroke-miterlimit="10" stroke="rgb(255,255,255)" stroke-opacity="1" stroke-width="1" d=" M19.010000228881836,10.904000282287598 C12.98799991607666,21.402999877929688 -0.4050000011920929,25.031999588012695 -10.904000282287598,19.010000228881836 C-21.402999877929688,12.98799991607666 -25.031999588012695,-0.4050000011920929 -19.01099967956543,-10.904000282287598 C-12.98900032043457,-21.402999877929688 0.4050000011920929,-25.031999588012695 10.904000282287598,-19.009000778198242 C21.402999877929688,-12.987000465393066 25.031999588012695,0.4050000011920929 19.010000228881836,10.904000282287598z"></path></g></g><g style="display: block;" transform="matrix(1,0,0,1,0.00000762939453125,0.0000019073486328125)" opacity="1"><g opacity="1" transform="matrix(1,0,0,1,112.48899841308594,23.40999984741211)"><path fill="rgb(255,255,255)" fill-opacity="1" d=" M19.010000228881836,10.904000282287598 C12.98799991607666,21.402999877929688 -0.4050000011920929,25.031999588012695 -10.904000282287598,19.010000228881836 C-21.402999877929688,12.98799991607666 -25.031999588012695,-0.4050000011920929 -19.010000228881836,-10.904000282287598 C-12.98799991607666,-21.402999877929688 0.4050000011920929,-25.031999588012695 10.904000282287598,-19.010000228881836 C21.402999877929688,-12.98799991607666 25.031999588012695,0.40400001406669617 19.010000228881836,10.904000282287598z"></path><path stroke-linecap="butt" stroke-linejoin="miter" fill-opacity="0" stroke-miterlimit="10" stroke="rgb(255,255,255)" stroke-opacity="1" stroke-width="1" d=" M19.010000228881836,10.904000282287598 C12.98799991607666,21.402999877929688 -0.4050000011920929,25.031999588012695 -10.904000282287598,19.010000228881836 C-21.402999877929688,12.98799991607666 -25.031999588012695,-0.4050000011920929 -19.010000228881836,-10.904000282287598 C-12.98799991607666,-21.402999877929688 0.4050000011920929,-25.031999588012695 10.904000282287598,-19.010000228881836 C21.402999877929688,-12.98799991607666 25.031999588012695,0.40400001406669617 19.010000228881836,10.904000282287598z"></path></g></g><g style="display: block;" transform="matrix(1,0,0,1,0,0)" opacity="1"><g opacity="1" transform="matrix(1,0,0,1,150.89599609375,45.441001892089844)"><path fill="rgb(255,255,255)" fill-opacity="1" d=" M19.010000228881836,10.904000282287598 C12.98799991607666,21.402999877929688 -0.4050000011920929,25.031999588012695 -10.904999732971191,19.010000228881836 C-21.40399932861328,12.98799991607666 -25.033000946044922,-0.4050000011920929 -19.01099967956543,-10.904000282287598 C-12.98900032043457,-21.402999877929688 0.4050000011920929,-25.031999588012695 10.904000282287598,-19.010000228881836 C21.402999877929688,-12.98799991607666 25.031999588012695,0.4050000011920929 19.010000228881836,10.904000282287598z"></path><path stroke-linecap="butt" stroke-linejoin="miter" fill-opacity="0" stroke-miterlimit="10" stroke="rgb(255,255,255)" stroke-opacity="1" stroke-width="1" d=" M19.010000228881836,10.904000282287598 C12.98799991607666,21.402999877929688 -0.4050000011920929,25.031999588012695 -10.904999732971191,19.010000228881836 C-21.40399932861328,12.98799991607666 -25.033000946044922,-0.4050000011920929 -19.01099967956543,-10.904000282287598 C-12.98900032043457,-21.402999877929688 0.4050000011920929,-25.031999588012695 10.904000282287598,-19.010000228881836 C21.402999877929688,-12.98799991607666 25.031999588012695,0.4050000011920929 19.010000228881836,10.904000282287598z"></path></g></g><g style="display: block;" transform="matrix(0.9999994039535522,0,0,0.9999994039535522,0.0001068115234375,0.00003814697265625)" opacity="1"><g opacity="1" transform="matrix(1,0,0,1,189.34500122070312,67.47100067138672)"><path fill="rgb(255,255,255)" fill-opacity="1" d=" M19.010000228881836,10.904000282287598 C12.98799991607666,21.402999877929688 -0.4050000011920929,25.031999588012695 -10.904000282287598,19.010000228881836 C-21.402999877929688,12.98799991607666 -25.031999588012695,-0.4050000011920929 -19.01099967956543,-10.904000282287598 C-12.98900032043457,-21.402999877929688 0.4050000011920929,-25.031999588012695 10.904000282287598,-19.009000778198242 C21.402999877929688,-12.987000465393066 25.031999588012695,0.4050000011920929 19.010000228881836,10.904000282287598z"></path><path stroke-linecap="butt" stroke-linejoin="miter" fill-opacity="0" stroke-miterlimit="10" stroke="rgb(255,255,255)" stroke-opacity="1" stroke-width="1" d=" M19.010000228881836,10.904000282287598 C12.98799991607666,21.402999877929688 -0.4050000011920929,25.031999588012695 -10.904000282287598,19.010000228881836 C-21.402999877929688,12.98799991607666 -25.031999588012695,-0.4050000011920929 -19.01099967956543,-10.904000282287598 C-12.98900032043457,-21.402999877929688 0.4050000011920929,-25.031999588012695 10.904000282287598,-19.009000778198242 C21.402999877929688,-12.987000465393066 25.031999588012695,0.4050000011920929 19.010000228881836,10.904000282287598z"></path></g></g><g style="display: block;" transform="matrix(0.9999994039535522,0,0,0.9999994039535522,0.0001068115234375,0.00006866455078125)" opacity="1"><g opacity="1" transform="matrix(1,0,0,1,189.34500122070312,111.96499633789062)"><path fill="rgb(255,255,255)" fill-opacity="1" d=" M19.010000228881836,10.904000282287598 C12.98799991607666,21.402999877929688 -0.4050000011920929,25.031999588012695 -10.904000282287598,19.010000228881836 C-21.402999877929688,12.98799991607666 -25.031999588012695,-0.4050000011920929 -19.01099967956543,-10.904000282287598 C-12.98900032043457,-21.402999877929688 0.4050000011920929,-25.033000946044922 10.904000282287598,-19.010000228881836 C21.402999877929688,-12.98799991607666 25.031999588012695,0.4050000011920929 19.010000228881836,10.904000282287598z"></path><path stroke-linecap="butt" stroke-linejoin="miter" fill-opacity="0" stroke-miterlimit="10" stroke="rgb(255,255,255)" stroke-opacity="1" stroke-width="1" d=" M19.010000228881836,10.904000282287598 C12.98799991607666,21.402999877929688 -0.4050000011920929,25.031999588012695 -10.904000282287598,19.010000228881836 C-21.402999877929688,12.98799991607666 -25.031999588012695,-0.4050000011920929 -19.01099967956543,-10.904000282287598 C-12.98900032043457,-21.402999877929688 0.4050000011920929,-25.033000946044922 10.904000282287598,-19.010000228881836 C21.402999877929688,-12.98799991607666 25.031999588012695,0.4050000011920929 19.010000228881836,10.904000282287598z"></path></g></g></g></svg>