<svg xmlns="http://www.w3.org/2000/svg" id="a" viewBox="0 0 66.77 61.85"><path d="M21.56,46.45c-.24,0-.42,0-.59,0-2.64,0-5.29,.02-7.93-.01-2.6-.03-4.77-1.8-5.37-4.32-.31-1.3-.15-2.46,.6-4.09-1.61,.76-3.2,.9-4.8,.22-1.6-.67-2.68-1.85-3.2-3.5-.83-2.63,.34-5.76,3.55-7-1.38-.86-2.3-2.03-2.66-3.6-.27-1.14-.19-2.27,.26-3.36,.52-1.27,1.4-2.23,2.61-2.87,1.21-.64,2.5-.78,3.87-.48-1.4-2.92-1.13-5.54,1.24-7.79,1.58-1.5,4.61-2.38,7.64-.42-.31-3.11,.84-5.44,3.87-6.43,2.74-.9,4.92,.17,6.55,2.48C28.01,1.6,30.91,.12,33.14,0c1.62-.08,3.08,.37,4.35,1.39,1.25,1,2,2.31,2.32,3.91,1.9-2.89,4.78-3.22,6.63-2.52,2.95,1.11,4.12,3.34,3.8,6.42,2.36-1.5,4.69-1.57,6.95,.17,1.06,.82,1.69,1.94,1.95,3.25,.25,1.29,.05,2.53-.55,3.72,3.47-.17,5.81,1.21,6.82,3.96,.8,2.2,.4,5.4-2.67,7.37,.14,.05,.26,.1,.37,.14,2.55,.96,4.07,3.6,3.58,6.22-.5,2.7-2.79,4.62-5.53,4.62-10.16,0-20.32,0-30.47,0-2.01,0-2.73,.69-2.74,2.7-.03,5.75-.01,11.49-.01,17.24,0,1.05,0,2.11,0,3.22l-6.36-1.1v-14.3Z"></path></svg>