<svg xmlns="http://www.w3.org/2000/svg" id="a" viewBox="0 0 78.81 37.24"><path d="M65.55,0h-10.4c-.43,0-.78,.35-.78,.78V15.1H24.44V.78c0-.43-.35-.78-.78-.78H13.26c-.43,0-.78,.35-.78,.78V36.47c0,.43,.35,.78,.78,.78h10.4c.43,0,.78-.35,.78-.78v-14.01h29.94v14.01c0,.43,.35,.78,.78,.78h10.4c.43,0,.78-.35,.78-.78V.78c0-.43-.35-.78-.78-.78Z"></path><path d="M78.04,15.79h-.9c-.43,0-.78-.35-.78-.78v-6.99c0-.43-.35-.78-.78-.78h-5.85c-.43,0-.78,.35-.78,.78V29.22c0,.43,.35,.78,.78,.78h5.85c.43,0,.78-.35,.78-.78v-6.99c0-.43,.35-.78,.78-.78h.9c.43,0,.78-.35,.78-.78v-4.12c0-.43-.35-.78-.78-.78Z"></path><path d="M9.07,7.25H3.23c-.43,0-.78,.35-.78,.78v6.99c0,.43-.35,.78-.78,.78H.78c-.43,0-.78,.35-.78,.78v4.12c0,.43,.35,.78,.78,.78h.9c.43,0,.78,.35,.78,.78v6.99c0,.43,.35,.78,.78,.78h5.84c.43,0,.78-.35,.78-.78V8.02c0-.43-.35-.78-.78-.78Z"></path></svg>